HIERARCHY
ROOT Hips
{
	OFFSET 0.000000 0.000000 0.000000
	CHANNELS 6 Xposition Yposition Zposition Xrotation Yrotation Zrotation
	JOINT LeftUpLeg_virtual
	{
		OFFSET 0.000000 0.000000 0.000000
		CHANNELS 3 Xrotation Yrotation Zrotation
		JOINT LeftUpLeg
		{
			OFFSET 11.394100 -6.187798 -0.413800
			CHANNELS 3 Xrotation Yrotation Zrotation
			JOINT LeftLeg
			{
				OFFSET 0.430247 -32.302673 3.732800
				CHANNELS 3 Xrotation Yrotation Zrotation
				JOINT LeftFoot
				{
					OFFSET -0.430247 -48.264931 -6.423300
					CHANNELS 3 Xrotation Yrotation Zrotation
					JOINT LeftToeBase
					{
						OFFSET 4.230900 -16.068199 23.438400
						CHANNELS 3 Xrotation Yrotation Zrotation
						JOINT LeftToe_End
						{
							OFFSET 4.510700 0.695400 19.974600
							CHANNELS 3 Xrotation Yrotation Zrotation
							End Site
							{
								OFFSET 0 0 0
							}
						}
					}
				}
			}
		}
	}
	JOINT RightUpLeg_virtual
	{
		OFFSET 0.000000 0.000000 0.000000
		CHANNELS 3 Xrotation Yrotation Zrotation
		JOINT RightUpLeg
		{
			OFFSET -11.333700 -6.187798 -0.413800
			CHANNELS 3 Xrotation Yrotation Zrotation
			JOINT RightLeg
			{
				OFFSET -0.430392 -32.302628 3.733000
				CHANNELS 3 Xrotation Yrotation Zrotation
				JOINT RightFoot
				{
					OFFSET 0.430392 -48.264973 -6.423500
					CHANNELS 3 Xrotation Yrotation Zrotation
					JOINT RightToeBase
					{
						OFFSET -4.230900 -16.068199 23.438400
						CHANNELS 3 Xrotation Yrotation Zrotation
						JOINT RightToe_End
						{
							OFFSET -4.510700 0.695400 19.974600
							CHANNELS 3 Xrotation Yrotation Zrotation
							End Site
							{
								OFFSET 0 0 0
							}
						}
					}
				}
			}
		}
	}
	JOINT Spine_virtual
	{
		OFFSET 0.000000 0.000000 0.000000
		CHANNELS 3 Xrotation Yrotation Zrotation
		JOINT Spine
		{
			OFFSET -0.002400 12.777504 0.315300
			CHANNELS 3 Xrotation Yrotation Zrotation
			JOINT Spine1
			{
				OFFSET -0.002067 5.816869 0.032633
				CHANNELS 3 Xrotation Yrotation Zrotation
				JOINT Spine1_split
				{
					OFFSET -0.002067 5.816869 0.032633
					CHANNELS 3 Xrotation Yrotation Zrotation
					JOINT Spine2
					{
						OFFSET -0.002067 5.816869 0.032633
						CHANNELS 3 Xrotation Yrotation Zrotation
						JOINT Neck_virtual
						{
							OFFSET 0.000000 0.000000 0.000000
							CHANNELS 3 Xrotation Yrotation Zrotation
							JOINT Neck
							{
								OFFSET -0.003700 21.199493 -0.826900
								CHANNELS 3 Xrotation Yrotation Zrotation
								JOINT Head
								{
									OFFSET 0.000000 20.442200 4.834800
									CHANNELS 3 Xrotation Yrotation Zrotation
									JOINT HeadTop_End
									{
										OFFSET 0.000000 34.668396 4.968400
										CHANNELS 3 Xrotation Yrotation Zrotation
										End Site
										{
											OFFSET 0 0 0
										}
									}
								}
							}
						}
						JOINT LeftShoulder_virtual
						{
							OFFSET 0.000000 0.000000 0.000000
							CHANNELS 3 Xrotation Yrotation Zrotation
							JOINT LeftShoulder
							{
								OFFSET 3.288150 8.794197 -1.372250
								CHANNELS 3 Xrotation Yrotation Zrotation
								JOINT LeftShoulder_split
								{
									OFFSET 3.288150 8.794197 -1.372250
									CHANNELS 3 Xrotation Yrotation Zrotation
									JOINT LeftArm
									{
										OFFSET 11.953299 -2.279007 -0.146200
										CHANNELS 3 Xrotation Yrotation Zrotation
										JOINT LeftForeArm
										{
											OFFSET 18.448900 0.000000 0.000000
											CHANNELS 3 Xrotation Yrotation Zrotation
											JOINT LeftHand
											{
												OFFSET 29.527798 0.000000 0.000000
												CHANNELS 3 Xrotation Yrotation Zrotation
												End Site
												{
													OFFSET 0 0 0
												}
											}
										}
									}
								}
							}
						}
						JOINT RightShoulder_virtual
						{
							OFFSET 0.000000 0.000000 0.000000
							CHANNELS 3 Xrotation Yrotation Zrotation
							JOINT RightShoulder
							{
								OFFSET -3.249400 8.794197 -1.372250
								CHANNELS 3 Xrotation Yrotation Zrotation
								JOINT RightShoulder_split
								{
									OFFSET -3.249400 8.794197 -1.372250
									CHANNELS 3 Xrotation Yrotation Zrotation
									JOINT RightArm
									{
										OFFSET -11.953299 -2.279007 -0.146200
										CHANNELS 3 Xrotation Yrotation Zrotation
										JOINT RightForeArm
										{
											OFFSET -18.448900 0.000000 0.000000
											CHANNELS 3 Xrotation Yrotation Zrotation
											JOINT RightHand
											{
												OFFSET -29.527802 0.000000 0.000000
												CHANNELS 3 Xrotation Yrotation Zrotation
												End Site
												{
													OFFSET 0 0 0
												}
											}
										}
									}
								}
							}
						}
					}
				}
			}
		}
	}
}
MOTION
Frames: 11
Frame Time: 0.03333333
0.936022 243.876205 -0.688274 0.000000 0.000000 0.000000 -5.710262 4.878627 7.137166 -22.588371 16.180527 11.547146 10.346750 -2.053987 2.477662 -5.837210 -0.148458 1.323569 -0.685538 -0.881235 -3.898187 0.000000 0.000000 0.000000 -3.644536 1.199758 6.322897 -14.954009 -3.533371 -7.211758 20.118510 -1.019316 -2.281512 -14.286464 -4.284049 2.085254 -10.135412 0.559849 -4.915482 0.000000 0.000000 0.000000 -0.968621 1.592415 5.781937 2.118007 -1.078609 2.860204 10.760667 -0.893967 3.693281 1.039993 1.279366 0.335581 0.000000 0.000000 0.000000 9.344020 -1.005145 3.234987 0.730044 -0.144130 -4.301067 8.186800 9.468264 -8.810256 0.000000 0.000000 0.000000 10.732760 -1.001363 2.754073 0.292995 16.158838 -9.411313 -1.041497 -1.520628 -0.690851 2.348415 -12.575289 -59.804146 -0.229574 -48.089695 0.643627 0.000000 0.000000 0.000000 11.261568 -0.420616 3.288524 2.171292 2.265291 7.824043 0.770729 1.206481 -1.686834 -1.051572 8.169529 56.240823 1.425190 38.481600 -1.584742 0.000000 0.000000 0.000000 
0.683629 243.860840 -0.901596 0.000000 0.000000 0.000000 -5.493970 5.208839 7.101882 -22.668090 16.239072 11.513700 10.619487 -1.552274 2.677817 -6.082449 0.095021 1.466359 -0.803531 -0.894617 -4.123741 0.000000 0.000000 0.000000 -3.427943 1.363586 6.173858 -15.214822 -3.862509 -7.191561 19.647635 -1.207622 -2.200034 -14.206400 -4.413966 1.776598 -10.115422 0.521713 -4.738866 0.000000 0.000000 0.000000 -0.676302 1.308709 5.864669 2.082813 -1.140371 2.795792 10.805270 -0.916262 3.597870 0.664176 1.161913 0.108604 0.000000 0.000000 0.000000 9.320468 -1.005214 3.172597 0.193193 -0.119068 -4.516621 8.271096 9.141418 -8.619610 0.000000 0.000000 0.000000 10.770624 -0.977222 2.662909 0.288349 16.013124 -8.946447 -1.448719 -0.918457 -0.868745 1.775744 -12.657790 -59.793443 -0.341418 -48.068010 0.458311 0.000000 0.000000 0.000000 11.332278 -0.460808 3.196697 2.116320 2.117602 7.708095 0.463222 1.019473 -1.582840 -1.191161 8.316931 56.130040 1.315690 40.041257 -1.423226 0.000000 0.000000 0.000000 
0.370303 243.685684 -1.144569 0.000000 0.000000 0.000000 -5.045515 5.537680 6.933975 -22.973679 16.377446 11.562442 11.182351 -0.816853 2.884296 -6.786307 0.435558 1.909177 -1.336426 -0.915385 -3.983324 0.000000 0.000000 0.000000 -2.839776 1.455440 5.985124 -15.888685 -4.164833 -7.155066 19.871891 -1.354495 -2.057599 -14.473417 -4.473319 1.672704 -10.439999 0.515829 -4.630937 0.000000 0.000000 0.000000 -0.001871 1.033291 5.911397 2.031805 -1.029344 2.776213 10.853373 -0.908683 3.459644 0.464674 0.918869 -0.074969 0.000000 0.000000 0.000000 9.360071 -0.978586 3.073521 -0.649332 -0.051118 -4.783032 7.741464 8.535876 -8.068127 0.000000 0.000000 0.000000 10.700884 -0.930572 2.557215 0.228484 15.709923 -8.189905 -1.776042 -0.539895 -1.004284 1.223061 -12.812821 -59.733078 -0.169289 -48.610337 0.412721 0.000000 0.000000 0.000000 11.396668 -0.472188 3.069993 2.078633 2.060258 7.328213 0.094791 0.514470 -1.419201 -0.605890 9.559791 55.638287 1.252050 42.236387 -1.253813 0.000000 0.000000 0.000000 
0.086820 243.371628 -1.431301 0.000000 0.000000 0.000000 -4.462424 5.899786 6.684991 -23.670676 16.485141 11.571586 12.108535 -0.032840 3.015495 -7.781532 0.700284 2.447480 -1.954823 -0.934988 -3.504775 0.000000 0.000000 0.000000 -2.072756 1.667262 5.786773 -16.800042 -4.276604 -7.127068 20.462514 -1.458996 -1.936400 -15.323109 -4.474244 1.695297 -10.808039 0.536192 -4.679510 0.000000 0.000000 0.000000 0.992220 0.900307 5.912690 1.970788 -0.816393 2.804523 10.920676 -0.923138 3.325955 0.406762 0.642318 -0.287371 0.000000 0.000000 0.000000 9.487128 -0.982920 2.959514 -1.617969 0.028159 -5.016666 6.653916 7.764965 -7.245222 0.000000 0.000000 0.000000 10.583124 -0.914951 2.455748 0.128592 15.234875 -7.311755 -1.901189 -0.448112 -1.084610 0.562390 -13.034658 -59.501412 0.159569 -49.453404 0.431908 0.000000 0.000000 0.000000 11.425452 -0.498454 2.938593 2.040442 2.179175 6.804994 -0.133935 -0.101414 -1.356315 0.625820 11.683969 54.744772 1.259858 44.842743 -1.116631 0.000000 0.000000 0.000000 
-0.064535 242.993149 -1.773689 0.000000 0.000000 0.000000 -3.828083 6.450979 6.451268 -24.916160 16.462735 11.393062 13.553381 0.536082 3.039210 -8.692828 0.777846 2.725768 -2.156204 -0.948991 -2.839996 0.000000 0.000000 0.000000 -1.345013 2.039535 5.649487 -17.656184 -4.066980 -7.109894 21.154588 -1.595727 -1.875774 -16.736567 -4.440636 1.678193 -10.741312 0.589785 -4.875465 0.000000 0.000000 0.000000 2.131106 1.052019 5.886533 1.938249 -0.627650 2.838607 11.027367 -1.021126 3.229451 0.466657 0.408006 -0.411325 0.000000 0.000000 0.000000 9.707524 -1.076666 2.873356 -2.476916 0.090189 -5.114852 5.191497 6.891076 -6.280541 0.000000 0.000000 0.000000 10.508133 -0.981623 2.379326 0.035904 14.595786 -6.455562 -1.705437 -0.383827 -1.082380 -0.086385 -13.377149 -58.904439 0.488074 -50.557518 0.454348 0.000000 0.000000 0.000000 11.429396 -0.604185 2.845536 1.981776 2.513985 6.228852 -0.278909 -0.686403 -1.529252 2.458883 14.437831 53.345188 1.329415 47.821515 -1.035647 0.000000 0.000000 0.000000 
-0.081095 242.603363 -1.977470 0.000000 0.000000 0.000000 -3.214464 7.304828 6.327952 -26.796721 16.333960 10.966351 15.567823 0.811397 2.940731 -9.167364 0.684926 2.592756 -1.810049 -0.927275 -2.129698 0.000000 0.000000 0.000000 -0.665312 2.589075 5.597118 -18.230195 -3.558088 -7.095641 21.650004 -1.779372 -1.872901 -18.328343 -4.401367 1.609800 -10.271978 0.681941 -5.166150 0.000000 0.000000 0.000000 3.235509 1.602428 5.832433 1.888348 -0.584050 2.863270 11.202945 -1.234870 3.201684 0.707472 0.391148 -0.281171 0.000000 0.000000 0.000000 10.021567 -1.276531 2.833858 -3.087559 0.134839 -5.059141 3.521846 5.933274 -5.300184 0.000000 0.000000 0.000000 10.564663 -1.152188 2.352955 -0.003636 13.785559 -5.813907 -1.396893 -0.163234 -0.917576 -0.607572 -13.720351 -57.814655 0.692895 -51.843222 0.440900 0.000000 0.000000 0.000000 11.455212 -0.808361 2.813565 1.914985 3.037616 5.679701 -0.079235 -0.945812 -1.980869 4.720488 17.434766 51.327690 1.409854 51.426513 -0.975387 0.000000 0.000000 0.000000 
-0.081895 242.267151 -2.042976 0.000000 0.000000 0.000000 -2.648678 8.259152 6.349192 -29.034103 16.170668 10.309107 17.912728 0.949236 2.788784 -9.170583 0.519901 2.394017 -1.199834 -0.880338 -1.452998 0.000000 0.000000 0.000000 0.021776 3.320667 5.638905 -18.443871 -2.891550 -7.067371 21.684321 -1.954127 -1.907042 -19.582490 -4.316042 1.726233 -10.046786 0.850052 -5.489799 0.000000 0.000000 0.000000 4.153200 2.514524 5.731099 1.873734 -0.739582 2.840520 11.492820 -1.546078 3.249188 1.021644 0.217963 0.029230 0.000000 0.000000 0.000000 10.459061 -1.572979 2.862704 -3.398743 0.145821 -4.906148 1.755748 4.871446 -4.363677 0.000000 0.000000 0.000000 10.817670 -1.418523 2.402463 -0.013222 12.832390 -5.406631 -0.944316 0.286633 -0.510915 -0.934272 -13.972818 -56.324482 0.747847 -53.495080 0.449421 0.000000 0.000000 0.000000 11.563157 -1.116596 2.854359 1.825742 3.576861 5.171856 0.423096 -0.926524 -2.464087 7.068126 20.415499 48.805994 1.495798 55.865166 -0.980023 0.000000 0.000000 0.000000 
-0.052986 242.006592 -2.042080 0.000000 0.000000 0.000000 -2.062129 9.189936 6.489821 -31.219678 16.147788 9.421231 20.149388 1.156615 2.638256 -9.256975 0.340977 2.618845 -0.573210 -0.858538 -0.861798 0.000000 0.000000 0.000000 0.871831 4.197059 5.719849 -18.266327 -2.269207 -6.990695 21.162767 -2.080252 -1.970717 -20.298192 -4.176943 2.070080 -10.423810 1.091735 -5.752517 0.000000 0.000000 0.000000 4.861905 3.642829 5.571740 1.952242 -1.046879 2.735723 11.941476 -1.853397 3.366529 1.185124 0.029029 0.219703 0.000000 0.000000 0.000000 11.077843 -1.872342 2.983584 -3.433931 0.113946 -4.711367 -0.046705 3.778383 -3.526799 0.000000 0.000000 0.000000 11.333711 -1.694790 2.539485 -0.006589 11.800178 -5.225382 -0.535029 0.803430 0.107771 -0.876152 -14.203586 -54.669329 0.758242 -55.691272 0.548835 0.000000 0.000000 0.000000 11.884433 -1.460843 2.970599 1.734998 4.025708 4.599427 0.823300 -0.655756 -2.910868 9.321221 23.142153 45.869665 1.473653 60.954459 -0.934554 0.000000 0.000000 0.000000 
-0.057542 241.874496 -2.016171 0.000000 0.000000 0.000000 -1.444029 9.996303 6.671755 -32.968698 16.330899 8.439451 21.626949 1.503130 2.519541 -9.866647 0.079007 3.438764 -0.486951 -0.864929 -0.225057 0.000000 0.000000 0.000000 1.924314 5.126298 5.783049 -17.766048 -1.903772 -6.830370 20.253710 -2.232359 -2.051238 -20.833875 -4.043025 2.330356 -10.715036 1.328802 -5.862974 0.000000 0.000000 0.000000 5.506539 4.698584 5.318668 2.127849 -1.407871 2.539066 12.567353 -2.041106 3.529002 0.929475 -0.023354 0.186419 0.000000 0.000000 0.000000 11.879143 -2.071553 3.179090 -3.411670 0.037252 -4.571033 -1.923765 2.717022 -2.764359 0.000000 0.000000 0.000000 12.093037 -1.873847 2.748490 0.005681 10.759479 -5.170653 -0.090231 1.080972 0.629481 -0.583534 -14.382994 -53.161418 0.863978 -58.186347 0.761627 0.000000 0.000000 0.000000 12.484151 -1.732679 3.138025 1.670781 4.293880 3.998676 0.952211 -0.185695 -3.344257 11.232380 25.476117 42.706246 1.287176 66.045552 -0.777810 0.000000 0.000000 0.000000 
-0.122333 241.859482 -1.886765 0.000000 0.000000 0.000000 -0.708437 10.670946 6.755895 -34.227686 16.739672 7.516620 22.160713 1.912186 2.425608 -11.056831 -0.297194 4.721746 -1.092027 -0.903976 0.562905 0.000000 0.000000 0.000000 3.116043 5.794407 5.786025 -17.341802 -1.860137 -6.617497 19.422766 -2.503752 -2.083796 -21.616415 -3.984110 2.358216 -10.286095 1.476317 -5.800123 0.000000 0.000000 0.000000 6.249433 5.423577 5.018739 2.375108 -1.708376 2.224327 13.360814 -2.021628 3.694596 0.513230 -0.045107 -0.042310 0.000000 0.000000 0.000000 12.824177 -2.098337 3.407034 -3.506850 -0.056416 -4.490767 -3.945422 1.758314 -2.000807 0.000000 0.000000 0.000000 13.097823 -1.876751 2.985345 -0.006028 9.826946 -4.969013 0.602875 1.044336 0.968139 -0.100295 -14.468163 -52.062789 1.043878 -60.557734 1.051205 0.000000 0.000000 0.000000 13.387834 -1.830343 3.307828 1.583532 4.310556 3.371306 0.917245 0.489563 -3.517380 12.759390 27.543018 39.517531 1.013304 70.284641 -0.606607 0.000000 0.000000 0.000000 
-0.255274 241.812653 -1.736519 0.000000 0.000000 0.000000 0.326838 11.215793 6.644035 -35.273532 17.250905 6.690855 22.124759 2.330790 2.368525 -12.631760 -0.703789 6.045934 -1.888061 -0.946049 1.337088 0.000000 0.000000 0.000000 4.384805 5.941749 5.724049 -17.399492 -2.095606 -6.426931 19.166879 -2.814772 -2.032058 -22.743645 -4.049965 2.511778 -9.474697 1.482370 -5.701637 0.000000 0.000000 0.000000 7.225577 5.791591 4.754657 2.684926 -1.854545 1.783666 14.298333 -1.765429 3.763026 -0.101873 0.073417 -0.305880 0.000000 0.000000 0.000000 13.864683 -1.906810 3.544081 -3.880496 -0.198046 -4.400085 -6.074456 0.888767 -1.198159 0.000000 0.000000 0.000000 14.279894 -1.650669 3.131290 -0.023761 9.049565 -4.535514 1.554584 0.588011 1.104163 0.210205 -14.311564 -51.353955 1.295774 -62.245925 1.361246 0.000000 0.000000 0.000000 14.524631 -1.689314 3.373511 1.473177 4.147982 2.839022 0.904322 1.211731 -3.218170 13.852877 29.402551 36.554500 0.701391 73.518722 -0.430484 0.000000 0.000000 0.000000 
